<svg xmlns="http://www.w3.org/2000/svg" width="182" height="20"><clipPath id="prefix__a"><rect width="182" height="20" rx="3" fill="#fff"/></clipPath><g clip-path="url(#prefix__a)"><path fill="#555" d="M0 0h76v20H0z"/><path fill="#86c440" d="M76 0h106v20H76z"/></g><g fill="#fff" text-anchor="middle" font-family="Verdana,Geneva,DejaVu Sans,sans-serif" text-rendering="geometricPrecision" font-size="110"><text x="385" y="140" textLength="630" transform="scale(.1)">powered by</text><text x="1180" y="140" fill="#222" textLength="730" transform="scale(.1)">spatial maths</text></g><g data-name="Layer 2"><g data-name="Layer 1"><path class="prefix__cls-6" fill="#222" stroke="#222" fill-opacity=".32" stroke-miterlimit="10" d="M165.06 12.21l3.83 1-3.25 2.36-4.14-1.23z"/><path class="prefix__cls-7" fill="#222" stroke="#222" stroke-width=".77" stroke-opacity=".18" d="M161.59 14.33l3.48-2.09 3.75 1-3.18 2.31z"/><path class="prefix__cls-6" fill="#222" stroke="#222" d="M165.06 12.21l3.83 1-3.25 2.37-4.14-1.24z"/><path class="prefix__cls-8" fill="#222" stroke="#222" stroke-width="1.55" stroke-opacity=".18" d="M161.67 14.32l3.4-2.05 3.67.94-3.11 2.27z"/><path class="prefix__cls-9" fill="#222" stroke="#222" stroke-linecap="round" stroke-width="1.2" d="M171.71 8.32l-.59.45c-.7.53 0 .38-1 1.12l-.28.2-4.64 3.52"/><path class="prefix__cls-9" fill="#222" stroke="#222" stroke-linecap="round" stroke-width="1.2" d="M164.94 3.65v.75c0 .87.3.22.3 1.44v7.79M174.89 15.87l-.72-.18c-.84-.22-.29.24-1.47-.07l-.26-.07-7.22-1.9"/></g></g></svg>