<svg xmlns="http://www.w3.org/2000/svg" width="182" height="20" viewBox="0 0 182 20">
    <defs>
        <style>
            .cls-6,
            .cls-7,
            .cls-8,
            .cls-9 {
                fill: #414042;
            }

            .cls-6 {
                fill-opacity: 0.32;
                stroke-miterlimit: 10;
            }

            .cls-6,
            .cls-7,
            .cls-8,
            .cls-9 {
                stroke: #414042;
            }

            .cls-7,
            .cls-8 {
                stroke-opacity: 0.18;
            }

            .cls-7 {
                stroke-width: 0.77px;
            }

            .cls-8 {
                stroke-width: 1.55px;
            }

            .cls-9 {
                stroke-linecap: round;
                stroke-width: 1.2px;
            }
        </style>
    </defs>


    <clipPath id="r">
        <rect width="182" height="20" rx="3" fill="#fff" />
    </clipPath>

    <g clip-path="url(#r)">
        <rect width="76" height="20" fill="#555" />
        <rect x="76" width="106" height="20" fill="#86c440" />
        <rect width="182" height="20" fill="url(#s)" />
    </g>

    <g fill="#fff" text-anchor="middle" font-family="Verdana,Geneva,DejaVu Sans,sans-serif"
        text-rendering="geometricPrecision" font-size="110">
        <text x="385" y="140" transform="scale(.1)" fill="#fff" textLength="630">powered by</text>
        <text x="1180" y="140" transform="scale(.1)" fill="#414042" textLength="730">spatial maths</text>
    </g>




    <g id="Layer_2" data-name="Layer 2">
        <g id="Layer_1-2" data-name="Layer 1">
            <path class="cls-6" transform="translate(-8.5 0)" d="M173.56,12.21l3.83,1-3.25,2.36L170,14.34Z" />
            <path class="cls-7" transform="translate(-8.5 0)" d="M170.09,14.33l3.48-2.09,3.75,1-3.18,2.31Z" />
            <path class="cls-6" transform="translate(-8.5 0)" d="M173.56,12.21l3.83,1-3.25,2.37L170,14.34Z" />
            <path class="cls-8" transform="translate(-8.5 0)" d="M170.17,14.32l3.4-2.05,3.67.94-3.11,2.27Z" />
            <path class="cls-9" transform="translate(-8.5 0)"
                d="M180.21,8.32l-.59.45c-.7.53,0,.38-1,1.12l-.28.2-4.64,3.52" />
            <path class="cls-9" transform="translate(-8.5 0)" d="M173.44,3.65V4.4c0,.87.3.22.3,1.44v7.79" />
            <path class="cls-9" transform="translate(-8.5 0)"
                d="M183.39,15.87l-.72-.18c-.84-.22-.29.24-1.47-.07l-.26-.07-7.22-1.9" />
        </g>
    </g>


</svg>