<svg xmlns="http://www.w3.org/2000/svg" width="182" height="20"><defs><style>.prefix__cls-6,.prefix__cls-9{fill:#414042}.prefix__cls-6{fill-opacity:.32;stroke-miterlimit:10;stroke:#414042}.prefix__cls-9{stroke:#414042;stroke-linecap:round;stroke-width:1.2px}</style></defs><clipPath id="prefix__r"><rect width="182" height="20" rx="3" fill="#fff"/></clipPath><g clip-path="url(#prefix__r)"><path fill="#555" d="M0 0h76v20H0z"/><path fill="#86c440" d="M76 0h106v20H76z"/><path fill="url(#prefix__s)" d="M0 0h182v20H0z"/></g><g fill="#fff" text-anchor="middle" font-family="Verdana,Geneva,DejaVu Sans,sans-serif" text-rendering="geometricPrecision" font-size="110"><text x="385" y="140" textLength="630" transform="scale(.1)">powered by</text><text x="1180" y="140" fill="#414042" textLength="730" transform="scale(.1)">spatial maths</text></g><g id="prefix__Layer_2" data-name="Layer 2"><g id="prefix__Layer_1-2" data-name="Layer 1"><path class="prefix__cls-6" transform="translate(-8.5)" d="M173.56 12.21l3.83 1-3.25 2.36-4.14-1.23z"/><path d="M161.59 14.33l3.48-2.09 3.75 1-3.18 2.31z" stroke-width=".77" stroke-opacity=".18" stroke="#414042" fill="#414042"/><path class="prefix__cls-6" transform="translate(-8.5)" d="M173.56 12.21l3.83 1-3.25 2.37-4.14-1.24z"/><path d="M161.67 14.32l3.4-2.05 3.67.94-3.11 2.27z" stroke-width="1.55" stroke-opacity=".18" stroke="#414042" fill="#414042"/><path class="prefix__cls-9" transform="translate(-8.5)" d="M180.21 8.32l-.59.45c-.7.53 0 .38-1 1.12l-.28.2-4.64 3.52"/><path class="prefix__cls-9" transform="translate(-8.5)" d="M173.44 3.65v.75c0 .87.3.22.3 1.44v7.79M183.39 15.87l-.72-.18c-.84-.22-.29.24-1.47-.07l-.26-.07-7.22-1.9"/></g></g></svg>